<?xml version="1.0" encoding="UTF-8" standalone="no"?> <svg id="Layer_1" data-name="Layer 1" xmlns="http://www.w3.org/2000/svg" viewBox="0 0 24 24"><title>office, business, briefcase, businessman, work</title><path d="M24,4H17.92a4.74,4.74,0,0,0-4.67-4h-2.5A4.74,4.74,0,0,0,6.08,4H0v6.83L1,11V21.37A2.58,2.58,0,0,0,3.51,24h17A2.57,2.57,0,0,0,23,21.37V11l1-.19ZM10.75,2h2.5a2.75,2.75,0,0,1,2.63,2H8.12A2.75,2.75,0,0,1,10.75,2ZM2,6H22V9.17L12,11,2,9.17ZM21,21.37a.59.59,0,0,1-.51.63h-17A.59.59,0,0,1,3,21.37v-10L12,13l9-1.64Z"/></svg>