<?xml version="1.0" standalone="no"?>
<!DOCTYPE svg PUBLIC "-//W3C//DTD SVG 20010904//EN"
 "http://www.w3.org/TR/2001/REC-SVG-20010904/DTD/svg10.dtd">
<svg version="1.0" xmlns="http://www.w3.org/2000/svg"
 width="800.000000pt" height="800.000000pt" viewBox="0 0 800.000000 800.000000"
 preserveAspectRatio="xMidYMid meet">
<metadata>
Created by potrace 1.11, written by Peter Selinger 2001-2013
</metadata>
<g transform="translate(0.000000,800.000000) scale(0.100000,-0.100000)"
fill="#000000" stroke="none">
<path d="M3399 6474 c-413 -839 -600 -1209 -614 -1215 -11 -4 -600 -92 -1310
-194 -710 -103 -1305 -190 -1324 -194 l-34 -7 966 -942 c654 -638 967 -950
967 -963 0 -12 -101 -613 -225 -1336 -124 -724 -224 -1317 -223 -1318 2 -2
542 281 1200 627 l1197 630 1198 -630 c659 -347 1199 -629 1200 -628 2 1 -98
592 -221 1312 -124 720 -226 1320 -228 1334 -3 21 133 158 965 969 532 519
966 945 964 947 -1 2 -597 89 -1322 194 -726 105 -1329 195 -1340 199 -14 6
-199 371 -615 1215 -327 663 -597 1206 -600 1206 -4 0 -274 -543 -601 -1206z
m881 -1329 c491 -108 911 -446 1131 -910 102 -215 126 -337 135 -670 10 -348
-18 -475 -174 -805 -22 -46 -38 -88 -36 -92 3 -4 139 -121 302 -259 163 -139
305 -260 315 -269 17 -16 15 -21 -48 -129 -40 -67 -89 -134 -123 -168 -69 -68
-249 -213 -264 -213 -7 0 -144 133 -306 296 l-295 296 -31 -24 c-157 -117
-261 -167 -461 -219 -168 -43 -285 -59 -446 -59 -238 0 -419 41 -679 155
l-145 63 -46 -47 c-25 -27 -124 -147 -221 -267 -205 -256 -278 -334 -313 -334
-37 0 -201 116 -290 205 -44 44 -104 116 -132 160 l-53 80 44 45 c24 25 247
257 495 515 249 259 456 471 460 473 5 2 38 -32 74 -75 154 -182 366 -332 520
-368 251 -58 598 1 740 127 l37 33 -111 125 c-136 153 -496 534 -614 650 l-87
85 -100 -110 c-119 -129 -324 -332 -350 -346 -15 -8 -62 33 -295 253 -153 144
-279 265 -280 268 -4 7 310 372 546 635 109 121 231 259 272 307 46 54 80 86
89 83 8 -2 60 -20 115 -39 81 -29 115 -36 175 -36 78 0 78 0 200 68 l42 23 71
-59 c40 -32 107 -87 150 -122 42 -34 77 -66 77 -69 0 -9 -123 -165 -195 -246
-91 -103 -192 -230 -210 -264 l-15 -30 87 -77 c71 -62 580 -472 760 -612 l42
-33 26 88 c15 48 39 138 53 198 92 393 -48 834 -364 1141 -194 189 -525 363
-732 384 -104 11 -380 -2 -556 -25 -65 -9 -125 -15 -134 -13 -21 4 86 73 204
132 116 57 223 93 332 111 120 20 506 13 612 -10z"/>
</g>
</svg>
